{"title":"Salala Mobiles (2014) - 1/3 DVDRip - x264 - DTS - TeamTelly","uid":10226223,"size":1550190794,"categoryP":"video","categoryS":"movies","magnet":"?xt=urn:btih:cf78915aa9dc55b3f7b30e71df989fce392ca40d&amp;dn=Salala+Mobiles+%282014%29+-+1%2F3+DVDRip+-+x264+-+DTS+-+TeamTelly&amp;tr=udp%3A%2F%2Ftracker.openbittorrent.com%3A80&amp;tr=udp%3A%2F%2Fopen.demonii.com%3A1337&amp;tr=udp%3A%2F%2Ftracker.coppersurfer.tk%3A6969&amp;tr=udp%3A%2F%2Fexodus.desync.com%3A6969","seeders":1,"leechers":0,"uploader":"kogegu","files":1,"time":1401085205,"description":" &lt;a href=&quot;http://img844.imageshack.us/img844/7171/screensq.png&quot; rel=&quot;nofollow&quot; target=&quot;_NEW&quot;&gt;http://img844.imageshack.us/img844/7171/screensq.png&lt;/a&gt;\n &lt;a href=&quot;\nhttp://i.imgur.com/zIeDftq.png&quot; rel=&quot;nofollow&quot; target=&quot;_NEW&quot;&gt;\nhttp://i.imgur.com/zIeDftq.png&lt;/a&gt; &lt;a href=&quot;\nhttp://i.imgur.com/wGxHI0L.png&quot; rel=&quot;nofollow&quot; target=&quot;_NEW&quot;&gt;\nhttp://i.imgur.com/wGxHI0L.png&lt;/a&gt; &lt;a href=&quot;\nhttp://i.imgur.com/z189Y6G.png&quot; rel=&quot;nofollow&quot; target=&quot;_NEW&quot;&gt;\nhttp://i.imgur.com/z189Y6G.png&lt;/a&gt; &lt;a href=&quot;\nhttp://i.imgur.com/BSLTyY0.png&quot; rel=&quot;nofollow&quot; target=&quot;_NEW&quot;&gt;\nhttp://i.imgur.com/BSLTyY0.png&lt;/a&gt; &lt;a href=&quot;\nhttp://i.imgur.com/Pl220GP.png&quot; rel=&quot;nofollow&quot; target=&quot;_NEW&quot;&gt;\nhttp://i.imgur.com/Pl220GP.png&lt;/a&gt; &lt;a href=&quot;\nhttp://i.imgur.com/eQyamMX.png&quot; rel=&quot;nofollow&quot; target=&quot;_NEW&quot;&gt;\nhttp://i.imgur.com/eQyamMX.png&lt;/a&gt; &lt;a href=&quot;\nhttp://i.imgur.com/UbBepxZ.png&quot; rel=&quot;nofollow&quot; target=&quot;_NEW&quot;&gt;\nhttp://i.imgur.com/UbBepxZ.png&lt;/a&gt; &lt;a href=&quot;\nhttp://i.imgur.com/zoA7bzG.png&quot; rel=&quot;nofollow&quot; target=&quot;_NEW&quot;&gt;\nhttp://i.imgur.com/zoA7bzG.png&lt;/a&gt; &lt;a href=&quot;\nhttp://i.imgur.com/DOqn63r.png&quot; rel=&quot;nofollow&quot; target=&quot;_NEW&quot;&gt;\nhttp://i.imgur.com/DOqn63r.png&lt;/a&gt; &lt;a href=&quot;\nhttp://i.imgur.com/yM53wbP.png&quot; rel=&quot;nofollow&quot; target=&quot;_NEW&quot;&gt;\nhttp://i.imgur.com/yM53wbP.png&lt;/a&gt;\n\nComplete name : Salala_Mobiles.2014.DVDRip.x264.DTS.ESubs.TeamTelly.mkv\nFormat : Matroska\nFormat version : Version 4 / Version 2\nFile size : 1.44 GiB\nDuration : 2h 8mn\nOverall bit rate : 1 609 Kbps\nMovie name : SALALA MOBLES (2014) - Team Telly\nEncoded date : UTC 2014-04-21 01:30:38\nWriting application : mkvmerge v6.9.1 ('Blue Panther') 64bit built on Apr 18 2014 18:23:38\nWriting library : libebml v1.3.0 + libmatroska v1.4.1\n\nVideo\nID : 1\nFormat : AVC\nFormat/Info : Advanced Video Codec\nFormat profile : &lt;a class=&quot;__cf_email__&quot; href=&quot;/cdn-cgi/l/email-protection&quot; data-cfemail=&quot;81c9e8e6e9c1cdb2afb1&quot;&gt;[email&amp;#160;protected]&lt;/a&gt;&lt;script data-cfhash='f9e31' type=&quot;text/javascript&quot;&gt;\n/* &lt;![CDATA[ */!function(){try{var t=&quot;currentScript&quot;in document?document.currentScript:function(){for(var t=document.getElementsByTagName(&quot;script&quot;),e=t.length;e--;)if(t[e].getAttribute(&quot;data-cfhash&quot;))return t[e]}();if(t&amp;&amp;t.previousSibling){var e,r,n,i,c=t.previousSibling,a=c.getAttribute(&quot;data-cfemail&quot;);if(a){for(e=&quot;&quot;,r=parseInt(a.substr(0,2),16),n=2;a.length-n;n+=2)i=parseInt(a.substr(n,2),16)^r,e+=String.fromCharCode(i);e=document.createTextNode(e),c.parentNode.replaceChild(e,c)}t.parentNode.removeChild(t);}}catch(u){}}()/* ]]&gt; */&lt;/script&gt;\nFormat settings, CABAC : Yes\nFormat settings, ReFrames : 8 frames\nCodec ID : V_MPEG4/ISO/AVC\nDuration : 2h 8mn\nBit rate : 853 Kbps\nWidth : 720 pixels\nHeight : 304 pixels\nDisplay aspect ratio : 2.35:1\nFrame rate mode : Constant\nFrame rate : 23.976 fps\nColor space : YUV\nChroma subsampling : 4:2:0\nBit depth : 8 bits\nScan type : Progressive\nBits/(Pixel*Frame) : 0.163\nStream size : 756 MiB (51%)\nTitle : TEAM TELLY\nWriting library : x264 core 138 r2358 9e941d1\nEncoding settings : cabac=1 / ref=8 / deblock=1:-1:-1 / analyse=0x3:0x133 / me=tesa / subme=8 / psy=1 / psy_rd=1.00:0.00 / mixed_ref=1 / me_range=32 / chroma_me=1 / trellis=2 / 8x8dct=1 / cqm=0 / deadzone=21,11 / fast_pskip=1 / chroma_qp_offset=-2 / threads=9 / lookahead_threads=2 / sliced_threads=0 / nr=0 / decimate=0 / interlaced=0 / bluray_compat=0 / constrained_intra=0 / bframes=4 / b_pyramid=2 / b_adapt=2 / b_bias=0 / direct=3 / weightb=1 / open_gop=0 / weightp=2 / keyint=240 / keyint_min=23 / scenecut=40 / intra_refresh=0 / rc_lookahead=40 / rc=2pass / mbtree=1 / bitrate=853 / ratetol=1.0 / qcomp=0.60 / qpmin=10 / qpmax=51 / qpstep=4 / cplxblur=20.0 / qblur=0.5 / ip_ratio=1.40 / aq=1:1.00\nDefault : Yes\nForced : No\nColor primaries : BT.709\n\nAudio\nID : 2\nFormat : DTS\nFormat/Info : Digital Theater Systems\nMode : 16\nFormat settings, Endianness : Big\nCodec ID : A_DTS\nDuration : 2h 8mn\nBit rate mode : Constant\nBit rate : 755 Kbps\nChannel(s) : 6 channels\nChannel positions : Front: L C R, Side: L R, LFE\nSampling rate : 48.0 KHz\nBit depth : 16 bits\nCompression mode : Lossy\nStream size : 693 MiB (47%)\nTitle : TEAM TELLY\nLanguage : Malayalam\nDefault : Yes\nForced : No\n\nMenu\n00:00:00.000 : en:Chapter 01\n00:02:55.500 : en:Chapter 02\n00:17:01.000 : en:Chapter 03\n00:34:18.033 : en:Chapter 04\n00:51:53.400 : en:Chapter 05\n00:56:52.400 : en:Chapter 06\n01:15:28.800 : en:Chapter 07\n01:20:58.800 : en:Chapter 08\n01:35:47.800 : en:Chapter 09\n01:47:23.800 : en:Chapter 10\n01:50:17.800 : en:Chapter 11\n02:03:26.300 : en:Chapter 12","torrent":{"xt":"urn:btih:cf78915aa9dc55b3f7b30e71df989fce392ca40d","amp;dn":"Salala+Mobiles+%282014%29+-+1%2F3+DVDRip+-+x264+-+DTS+-+TeamTelly","amp;tr":["udp%3A%2F%2Ftracker.openbittorrent.com%3A80","udp%3A%2F%2Fopen.demonii.com%3A1337","udp%3A%2F%2Ftracker.coppersurfer.tk%3A6969","udp%3A%2F%2Fexodus.desync.com%3A6969"],"infoHash":"cf78915aa9dc55b3f7b30e71df989fce392ca40d","infoHashBuffer":{"type":"Buffer","data":[207,120,145,90,169,220,85,179,247,179,14,113,223,152,159,206,57,44,164,13]},"announce":[],"urlList":[]}}